<?xml version="1.0" standalone="no"?>
<!DOCTYPE svg PUBLIC "-//W3C//DTD SVG 20010904//EN"
 "http://www.w3.org/TR/2001/REC-SVG-20010904/DTD/svg10.dtd">
<svg version="1.0" xmlns="http://www.w3.org/2000/svg"
 width="1582.000000pt" height="314.000000pt" viewBox="0 0 1582.000000 314.000000"
 preserveAspectRatio="xMidYMid meet">

<g transform="translate(0.000000,314.000000) scale(0.100000,-0.100000)"
fill="#000000" stroke="none">
<path d="M11269 3120 c-50 -26 -113 -98 -134 -153 -38 -100 -1 -256 76 -321
68 -57 107 -71 204 -71 104 0 163 23 227 87 61 61 72 91 72 193 0 103 -13 142
-69 203 -60 67 -103 82 -231 82 -87 -1 -116 -5 -145 -20z"/>
<path d="M10243 3068 c-4 -7 -10 -257 -11 -556 l-4 -544 -81 84 c-166 170
-285 224 -517 235 -220 10 -378 -26 -544 -123 -90 -52 -212 -165 -266 -244
-77 -113 -151 -284 -192 -440 -19 -76 -22 -110 -22 -330 0 -159 5 -271 13
-320 19 -107 75 -271 127 -370 82 -155 266 -339 414 -413 l85 -42 299 -3 c327
-3 315 -5 428 60 83 48 164 121 225 205 l48 65 6 -39 c4 -21 10 -95 14 -165
l7 -128 219 0 219 0 0 1540 0 1540 -229 0 c-173 0 -232 -3 -238 -12z m-373
-1219 c118 -55 218 -162 286 -304 57 -119 66 -187 62 -455 -4 -224 -6 -239
-32 -315 -59 -172 -154 -293 -276 -353 -219 -108 -464 -70 -629 97 -106 107
-167 232 -192 393 -16 104 -6 435 16 513 47 171 162 328 287 395 102 55 129
60 283 57 126 -2 145 -5 195 -28z"/>
<path d="M4870 2617 c0 -118 -3 -248 -6 -290 l-7 -77 -173 0 -174 0 0 -190 0
-190 180 0 180 0 0 -257 c0 -142 5 -467 10 -723 11 -498 13 -518 67 -625 40
-79 144 -174 242 -223 l83 -42 287 1 c197 0 297 4 321 12 33 12 35 15 32 52
-3 47 -50 289 -62 321 -8 21 -10 21 -82 7 -110 -21 -241 -14 -297 17 -55 31
-100 86 -112 136 -4 22 -9 328 -9 681 l0 643 273 2 272 3 3 193 2 192 -275 0
-275 0 0 285 0 285 -240 0 -240 0 0 -213z"/>
<path d="M1582 2760 c-67 -14 -146 -54 -195 -99 -63 -58 -102 -149 -121 -284
-8 -59 -24 -128 -35 -153 -38 -86 -241 -267 -408 -365 -93 -54 -148 -63 -291
-50 -134 13 -219 4 -287 -29 -64 -31 -142 -105 -173 -164 -25 -47 -27 -60 -27
-171 0 -141 11 -170 97 -256 95 -95 222 -134 357 -109 88 16 134 42 207 115
54 53 65 71 83 131 11 38 27 113 35 166 18 124 42 172 124 249 92 86 264 213
341 251 l64 32 206 -2 206 -3 61 31 c76 37 156 120 192 197 23 49 27 71 27
143 -1 92 -24 161 -81 236 -75 98 -253 160 -382 134z"/>
<path d="M3272 2289 c-140 -10 -248 -39 -371 -100 -89 -44 -117 -64 -191 -138
-66 -65 -96 -106 -128 -168 l-42 -81 0 -184 0 -185 32 -64 c22 -45 57 -90 117
-149 134 -133 232 -176 618 -270 281 -69 379 -105 439 -165 51 -52 79 -127 70
-189 -24 -161 -221 -267 -464 -253 -205 12 -328 88 -417 258 -20 38 -39 69
-43 69 -36 1 -406 -66 -418 -75 -16 -11 -15 -18 9 -90 72 -214 231 -381 448
-470 l84 -35 365 0 365 0 82 33 c203 83 326 195 422 384 l31 62 0 176 c0 174
0 176 -29 233 -70 138 -169 234 -306 297 -104 48 -171 69 -454 142 -254 65
-381 111 -429 156 -41 38 -65 97 -65 157 0 97 57 175 168 227 58 27 66 28 220
28 151 0 163 -1 215 -26 79 -37 152 -107 191 -184 26 -49 39 -65 55 -65 19 0
326 52 382 65 30 7 28 29 -8 124 -129 335 -482 513 -948 480z"/>
<path d="M12925 2279 c-86 -12 -217 -55 -305 -99 -300 -151 -515 -469 -559
-825 -14 -115 -14 -380 0 -482 6 -43 26 -124 44 -180 64 -191 133 -304 270
-438 102 -100 206 -168 343 -221 l85 -34 351 0 351 1 87 33 c224 85 394 239
500 451 43 86 43 90 1 103 -62 18 -336 72 -368 72 -26 0 -36 -9 -69 -60 -111
-173 -295 -258 -535 -248 -137 6 -231 35 -331 103 -86 58 -157 141 -202 234
-40 83 -86 267 -71 282 8 8 253 13 836 17 l825 5 6 44 c7 54 -9 266 -30 388
-79 469 -410 799 -858 855 -94 12 -285 11 -371 -1z m280 -388 c71 -6 116 -16
155 -33 80 -36 177 -113 226 -180 70 -95 143 -310 113 -329 -18 -11 -1140 -11
-1158 0 -32 20 17 179 90 291 101 157 267 252 449 258 14 1 70 -3 125 -7z"/>
<path d="M15445 2267 c-177 -69 -276 -149 -359 -294 -26 -46 -51 -85 -55 -88
-11 -6 -21 80 -21 171 0 39 -3 99 -6 133 l-7 61 -207 0 -207 0 -6 -122 c-4
-68 -10 -574 -14 -1125 l-6 -1003 240 0 241 0 5 693 c3 484 9 707 17 742 37
157 150 305 285 371 90 45 171 57 311 49 l111 -7 6 48 c3 27 12 120 18 207 10
122 10 160 0 170 -7 7 -59 13 -149 14 -123 3 -143 1 -197 -20z"/>
<path d="M6350 2251 l-75 -6 1 -745 c0 -512 4 -773 12 -836 38 -292 214 -530
470 -638 61 -26 64 -26 331 -26 l269 0 89 45 c104 52 201 135 271 234 l47 66
6 -145 c4 -80 7 -157 8 -172 l1 -28 215 0 215 0 0 1124 0 1124 -117 7 c-131 9
-314 -1 -324 -17 -9 -15 -18 -335 -25 -938 l-7 -535 -44 -89 c-102 -204 -238
-285 -476 -286 -111 0 -192 22 -263 70 -95 66 -175 190 -194 300 -9 51 -26
878 -30 1433 l0 67 -152 -2 c-84 -1 -187 -4 -228 -7z"/>
<path d="M11180 1131 l0 -1131 240 0 240 0 0 1119 c0 885 -3 1122 -12 1128 -7
4 -115 9 -240 11 l-228 4 0 -1131z"/>
<path d="M1360 1559 c-53 -10 -135 -50 -172 -83 -84 -75 -119 -152 -138 -306
-17 -142 -32 -174 -124 -266 -55 -54 -102 -91 -145 -112 l-64 -32 -207 0 -207
0 -61 -31 c-78 -39 -153 -120 -182 -197 -32 -84 -26 -224 13 -304 34 -68 97
-127 183 -169 61 -30 66 -31 181 -27 108 3 123 6 171 32 72 40 144 119 169
186 11 30 28 101 37 157 8 55 25 127 37 158 29 79 118 171 211 221 l73 39 206
-3 206 -2 70 35 c80 40 138 97 180 177 26 49 28 62 28 163 0 103 -2 113 -29
163 -57 102 -166 179 -286 202 -60 11 -87 11 -150 -1z"/>
</g>
</svg>
