<?xml version="1.0" encoding="utf-8"?>
<svg version="1.0" xmlns="http://www.w3.org/2000/svg" width="1408.000000pt" height="768.000000pt" viewBox="498.917 -4.832 399.293 404.382" preserveAspectRatio="xMidYMid meet">
  <g transform="translate(0.000000,768.000000) scale(0.100000,-0.100000)" fill="#000000" stroke="none">
    <path d="M7816 7665 c-136 -35 -250 -114 -325 -226 -67 -100 -83 -155 -90 -316 -7 -141 -8 -143 -49 -226 -54 -109 -93 -151 -265 -290 -276 -222 -353 -267 -490 -289 -68 -10 -86 -9 -181 12 -194 42 -349 14 -488 -91 -137 -103 -208 -248 -208 -429 0 -157 46 -267 154 -375 122 -122 248 -171 416 -162 146 7 267 62 366 164 97 101 142 214 150 377 13 255 60 331 354 566 214 171 298 220 415 245 91 19 107 19 196 -4 117 -30 186 -34 275 -15 164 33 308 142 378 284 37 76 66 186 66 250 0 64 -29 174 -66 248 -83 170 -257 279 -459 288 -59 2 -110 -1 -149 -11z"/>
    <path d="M7510 5976 c-106 -30 -219 -101 -276 -172 -88 -110 -124 -216 -124 -364 0 -157 -48 -278 -154 -388 -165 -173 -357 -244 -535 -197 -98 25 -186 29 -268 12 -261 -56 -437 -274 -435 -537 2 -135 56 -274 145 -369 76 -81 204 -143 331 -162 213 -32 442 86 545 280 46 86 60 147 66 276 4 64 14 137 25 175 60 204 281 389 500 419 62 8 85 6 225 -24 290 -60 570 130 632 430 54 266 -117 540 -386 619 -66 19 -225 20 -291 2z"/>
    <path d="M9360 3381 c-88 -29 -163 -90 -202 -164 -19 -35 -23 -58 -23 -137 0 -86 3 -101 30 -154 117 -230 470 -225 586 9 20 41 24 65 24 135 0 98 -20 152 -78 217 -57 63 -134 96 -231 100 -44 1 -92 -1 -106 -6z"/>
    <path d="M8207 3314 c-4 -4 -7 -273 -7 -598 l-1 -591 -26 35 c-15 19 -63 71 -107 115 -131 130 -282 191 -496 202 -491 24 -867 -240 -1024 -721 -54 -165 -70 -283 -70 -511 -1 -240 14 -344 70 -514 66 -198 149 -335 286 -467 168 -163 358 -245 603 -260 326 -21 583 98 756 351 l34 50 5 -182 5 -182 235 2 235 2 0 1635 0 1635 -246 3 c-135 1 -248 -1 -252 -4z m-472 -1286 c93 -19 175 -66 251 -142 150 -151 214 -344 214 -646 0 -460 -167 -731 -489 -796 -259 -52 -515 73 -630 307 -64 129 -92 255 -98 434 -8 234 16 374 92 530 122 253 375 373 660 313z"/>
    <path d="M2548 2743 l-3 -308 -195 0 -195 0 0 -205 0 -205 170 -2 c94 0 182 -1 197 -2 l27 -1 3 -752 c3 -684 5 -758 21 -812 65 -220 209 -355 443 -417 115 -30 311 -37 443 -15 108 18 207 48 205 62 -4 23 -76 380 -79 390 -2 8 -26 6 -82 -7 -43 -10 -112 -19 -154 -19 -140 0 -224 43 -271 138 l-23 47 -3 693 -3 692 291 0 290 0 0 209 0 210 -277 -3 c-153 -1 -284 -1 -290 2 -10 3 -13 74 -13 308 l0 304 -250 0 -250 0 -2 -307z"/>
    <path d="M810 2469 c-371 -43 -647 -247 -720 -533 -23 -90 -27 -242 -9 -328 18 -87 74 -192 141 -264 133 -142 321 -222 702 -300 307 -62 433 -121 487 -227 25 -48 28 -146 6 -199 -20 -47 -80 -113 -132 -144 -134 -78 -402 -85 -561 -14 -98 43 -198 155 -226 254 -6 23 -14 44 -17 48 -3 4 -107 -11 -231 -32 -124 -22 -231 -40 -237 -40 -19 0 -16 -18 18 -122 54 -167 159 -303 312 -405 146 -98 336 -150 582 -160 494 -19 850 168 983 515 24 62 26 80 26 222 0 146 -1 159 -27 225 -40 100 -69 145 -136 211 -136 134 -273 189 -736 293 -238 54 -336 92 -399 157 -49 51 -70 110 -63 180 17 161 168 254 414 254 155 0 253 -33 341 -113 44 -41 102 -143 102 -181 0 -16 5 -18 33 -13 210 36 397 69 418 73 l27 5 -15 56 c-109 418 -532 645 -1083 582z"/>
    <path d="M11085 2469 c-264 -36 -476 -139 -646 -316 -220 -228 -332 -537 -332 -913 0 -247 37 -427 122 -606 59 -123 108 -196 192 -288 247 -269 631 -389 1062 -331 377 50 650 240 802 556 19 41 35 79 35 85 0 6 -15 14 -32 17 -18 3 -122 26 -230 50 l-197 44 -38 -66 c-108 -187 -291 -281 -546 -281 -365 1 -615 232 -662 613 l-7 57 881 0 881 0 2 73 c10 354 -61 643 -212 868 -60 89 -190 216 -285 277 -96 63 -249 125 -365 147 -103 20 -329 27 -425 14z m355 -434 c152 -46 279 -154 349 -296 38 -77 81 -216 81 -261 0 -17 -25 -18 -625 -18 -600 0 -625 1 -625 18 0 46 43 180 82 255 84 161 229 274 403 312 86 18 256 13 335 -10z"/>
    <path d="M13778 2470 c-140 -24 -286 -104 -378 -208 -27 -31 -71 -97 -97 -147 l-48 -90 -10 205 -10 205 -215 -1 c-118 -1 -223 -2 -232 -3 -17 -1 -18 -65 -18 -1196 l0 -1195 249 0 250 0 3 733 c4 715 5 734 26 810 33 118 76 198 146 268 97 97 184 140 322 158 75 10 105 8 239 -14 l41 -7 17 219 c10 120 17 225 17 234 0 32 -180 49 -302 29z"/>
    <path d="M4020 1640 c0 -874 1 -896 61 -1075 81 -242 259 -427 489 -507 201 -70 475 -66 655 9 132 55 261 165 344 293 l36 55 5 -185 5 -185 235 0 235 0 0 1195 0 1195 -235 1 c-129 1 -243 0 -252 -3 -16 -4 -18 -57 -20 -776 -3 -767 -3 -772 -25 -830 -75 -197 -188 -306 -368 -352 -76 -19 -224 -19 -300 0 -127 33 -231 118 -290 236 -71 139 -68 110 -72 960 l-4 765 -250 0 -249 -1 0 -795z"/>
    <path d="M9200 1240 l0 -1201 253 3 252 3 0 1195 0 1195 -252 3 -253 4 0 -1202z"/>
  </g>
</svg>